<?xml version="1.0" standalone="no"?>
<!DOCTYPE svg PUBLIC "-//W3C//DTD SVG 20010904//EN"
 "http://www.w3.org/TR/2001/REC-SVG-20010904/DTD/svg10.dtd">
<svg version="1.0" xmlns="http://www.w3.org/2000/svg"
 width="1280.000000pt" height="892.000000pt" viewBox="0 0 1280.000000 892.000000"
 preserveAspectRatio="xMidYMid meet">
<metadata>
Created by potrace 1.15, written by Peter Selinger 2001-2017
</metadata>
<g transform="translate(0.000000,892.000000) scale(0.100000,-0.100000)"
fill="#000000" stroke="none">
<path d="M8004 8858 c-9 -29 -69 -163 -134 -298 -64 -135 -147 -316 -186 -402
l-69 -157 -40 38 c-79 76 -187 131 -435 221 -173 63 -284 124 -353 193 l-60
60 6 -44 c17 -123 18 -203 2 -414 -18 -238 -16 -425 4 -463 14 -25 3 -28 -45
-13 -16 5 -116 37 -221 71 -308 97 -511 185 -608 264 -64 52 -68 53 -50 9 43
-100 65 -160 165 -458 90 -267 126 -364 186 -501 3 -7 -33 -9 -113 -6 -95 3
-148 -1 -273 -22 -85 -14 -158 -26 -162 -26 -9 0 -28 59 -28 87 0 13 25 74 54
136 30 62 62 141 72 177 22 87 15 207 -14 274 -16 35 -24 76 -27 145 -6 102
-22 179 -35 165 -16 -18 -99 -220 -114 -279 -26 -100 -29 -190 -12 -304 9 -58
16 -135 16 -172 l0 -68 -80 -85 -81 -85 -36 16 c-20 8 -70 17 -110 20 -61 5
-73 3 -73 -10 0 -14 35 -49 92 -92 l27 -20 -155 -164 c-163 -172 -262 -293
-318 -385 l-33 -55 -22 112 c-97 493 -393 880 -861 1126 -329 173 -789 281
-1201 281 -75 0 -183 3 -242 6 l-105 7 -66 82 c-67 85 -155 159 -237 201 -65
33 -184 64 -244 64 -27 0 -86 12 -130 26 -78 25 -205 43 -205 30 0 -24 53
-101 109 -159 84 -87 205 -168 323 -216 119 -48 173 -62 278 -70 l85 -6 26
-70 c20 -50 29 -98 34 -165 25 -378 83 -675 185 -946 22 -58 40 -108 40 -110
0 -1 -20 8 -44 22 -193 108 -477 123 -725 37 -146 -50 -318 -148 -441 -252
-30 -26 -93 -73 -140 -106 -47 -32 -139 -99 -205 -150 -66 -50 -151 -112 -188
-137 l-68 -45 -62 33 c-71 37 -162 64 -219 64 -21 0 -67 -10 -101 -21 -52 -18
-82 -22 -187 -20 -69 1 -131 -2 -138 -7 -8 -6 14 -23 70 -54 226 -126 242
-130 505 -137 l213 -6 75 -75 c42 -41 115 -131 163 -199 239 -339 387 -512
531 -622 90 -68 268 -154 366 -176 109 -24 302 -24 415 0 83 18 143 41 91 35
-22 -3 -26 3 -37 52 -7 30 -11 56 -10 57 2 2 24 9 49 17 l47 14 10 -42 c6 -22
12 -45 14 -51 1 -5 -29 -57 -67 -115 -167 -254 -283 -541 -392 -978 -49 -198
-78 -281 -127 -373 -27 -52 -41 -66 -101 -101 -83 -48 -179 -142 -224 -219
-17 -29 -42 -90 -54 -134 -12 -44 -30 -98 -39 -120 -27 -63 -34 -105 -18 -105
53 0 287 103 398 174 133 86 207 170 284 323 25 51 43 74 59 78 12 3 155 6
317 8 248 3 314 7 413 25 150 28 288 63 419 107 127 43 107 24 -62 -57 -188
-90 -356 -158 -389 -158 -11 0 -11 3 -1 15 10 12 10 18 0 30 -17 20 -57 19
-68 -2 -14 -26 -4 -43 25 -43 50 0 14 -12 -138 -45 -330 -74 -539 -172 -629
-297 -17 -23 -29 -43 -27 -45 2 -2 20 4 40 12 55 23 109 20 135 -8 30 -32 28
-85 -5 -155 -33 -73 -194 -235 -313 -317 -108 -74 -121 -87 -45 -45 121 67
286 190 450 336 250 224 342 290 495 361 47 22 104 52 127 66 24 15 45 27 49
27 3 0 -24 -33 -61 -72 -36 -40 -130 -156 -208 -257 -78 -102 -172 -215 -209
-253 -109 -111 -255 -197 -528 -313 -185 -78 -268 -126 -309 -178 -13 -16 -11
-16 25 -1 144 61 257 57 334 -12 62 -56 84 -113 84 -219 0 -126 -36 -228 -128
-359 -71 -101 -70 -103 8 -21 92 97 180 224 248 360 83 163 144 248 308 420
115 121 170 194 274 362 43 70 111 180 150 243 172 280 375 502 594 649 71 48
250 141 271 141 23 0 -19 -41 -59 -57 -148 -62 -379 -253 -469 -387 -17 -27
-27 -34 -29 -24 -6 33 -62 26 -62 -8 0 -14 28 -27 41 -18 14 9 12 2 -41 -97
-28 -55 -73 -168 -106 -269 -99 -306 -200 -518 -424 -890 -114 -189 -179 -315
-180 -348 0 -22 16 -5 73 76 63 90 152 177 202 197 111 47 184 -33 185 -204
l1 -66 24 75 c182 576 231 752 270 976 66 374 153 583 329 788 41 48 187 176
201 176 1 0 -2 -18 -7 -40 -9 -35 -14 -40 -38 -40 -35 0 -58 -25 -43 -48 5
-10 21 -17 34 -17 47 0 43 -24 -13 -83 -97 -103 -162 -216 -200 -349 -20 -72
-21 -94 -17 -298 2 -121 4 -270 4 -332 0 -101 1 -109 14 -85 67 134 143 188
211 152 17 -9 20 -6 26 27 4 21 3 68 -2 105 l-10 68 36 -33 c69 -65 155 -102
267 -113 54 -6 63 -9 57 -23 -4 -9 -9 -46 -12 -83 -3 -55 0 -75 17 -112 79
-163 324 -225 513 -130 26 13 50 29 53 35 4 6 15 -12 25 -40 9 -28 25 -60 34
-70 73 -80 244 -64 394 38 81 54 198 182 256 280 52 86 59 120 10 50 -40 -59
-139 -145 -199 -174 -28 -14 -74 -28 -102 -32 -56 -6 -149 12 -161 32 -22 38
-117 47 -168 16 -18 -11 -44 -35 -59 -55 -56 -73 -212 -119 -331 -97 -183 33
-290 164 -251 306 8 28 18 58 22 68 6 15 0 17 -66 17 -121 0 -221 36 -299 107
-44 39 -72 113 -89 238 -10 75 -1 208 17 241 18 34 91 94 143 119 l49 22 -32
25 c-32 25 -32 27 -20 60 6 19 12 66 12 104 0 59 5 81 35 143 20 41 49 91 65
111 17 21 30 43 30 48 0 29 158 48 284 33 50 -6 92 -8 95 -6 2 3 -5 15 -17 28
-33 35 -70 126 -82 202 -17 104 -5 207 41 344 52 157 72 290 68 446 l-4 124
27 -34 c36 -43 98 -67 176 -67 100 -1 170 40 284 164 51 55 115 115 142 133
l49 34 -44 11 c-151 41 -241 131 -286 285 -13 48 -30 326 -17 295 4 -8 20 -49
36 -90 41 -104 110 -211 192 -297 79 -84 136 -128 219 -171 l58 -29 -48 -12
c-26 -7 -70 -24 -96 -39 -53 -28 -171 -148 -162 -163 4 -5 35 -9 70 -9 114 0
214 -49 283 -140 20 -27 39 -49 42 -49 3 -1 14 16 25 36 26 50 158 181 231
230 44 30 64 38 79 32 11 -4 36 -8 55 -9 32 0 28 -4 -55 -44 -155 -75 -247
-168 -325 -328 l-38 -77 -7 47 c-26 180 -189 296 -368 263 -130 -24 -248 -114
-288 -220 -25 -67 -23 -185 4 -238 22 -42 80 -98 117 -113 41 -17 38 -26 -10
-33 -107 -14 -249 -116 -305 -219 -25 -45 -30 -67 -33 -144 -4 -79 -1 -98 21
-152 l25 -62 -32 0 c-88 0 -188 -66 -232 -153 -52 -101 -19 -229 74 -292 l34
-23 -23 -12 c-114 -58 -169 -219 -122 -356 32 -94 151 -184 243 -184 l27 0
-13 -52 c-22 -85 -3 -151 61 -207 61 -53 98 -65 215 -65 90 0 112 3 152 23
l48 23 34 -30 c67 -58 195 -67 300 -19 62 29 100 73 117 138 12 46 13 47 49
42 21 -3 62 2 91 11 114 32 194 142 187 255 l-3 60 44 11 c40 10 45 9 60 -12
30 -43 84 -99 112 -115 16 -10 29 -20 29 -24 0 -3 -27 -9 -60 -12 -147 -16
-212 -70 -344 -287 -155 -253 -317 -419 -592 -608 -272 -186 -458 -475 -510
-791 -73 -443 174 -752 581 -727 292 18 352 34 430 117 155 165 108 370 -92
404 -109 18 -233 -65 -269 -179 -16 -51 -17 -61 -4 -99 20 -56 67 -87 133 -87
44 0 54 4 87 38 46 45 61 102 39 141 -18 31 -51 38 -70 15 -13 -16 -12 -16 9
-5 69 37 68 -95 0 -143 -36 -26 -101 -20 -138 11 -30 25 -32 30 -28 77 9 105
98 187 202 188 189 2 238 -197 83 -339 -181 -167 -461 -10 -419 235 23 137
112 270 236 354 149 102 326 155 781 233 622 107 825 189 1039 416 91 96 170
213 229 336 l43 91 18 -51 c13 -36 36 -69 75 -108 72 -73 140 -99 251 -99 l79
0 53 -53 c70 -70 129 -91 237 -85 57 4 90 12 129 32 l53 27 39 -31 c129 -102
341 -68 484 78 l38 40 78 -5 c61 -5 88 -2 122 12 101 40 187 147 234 291 19
59 32 85 46 90 37 11 91 69 118 126 l27 57 12 -40 c12 -39 11 -41 -28 -85
-107 -121 -120 -331 -31 -466 33 -50 107 -104 156 -114 l29 -6 0 -86 c0 -75 4
-95 28 -145 35 -71 108 -144 179 -180 59 -30 148 -50 183 -41 19 5 25 0 35
-30 17 -51 90 -120 168 -158 58 -28 78 -32 147 -32 82 -1 142 19 175 59 12 14
16 13 44 -14 44 -42 119 -73 193 -79 166 -13 312 96 330 245 l5 48 57 1 c181
3 322 203 253 359 l-18 40 42 26 c49 32 85 76 116 145 34 75 32 208 -4 287
-15 31 -49 79 -76 105 l-49 47 21 40 c27 53 27 135 -1 197 -29 63 -100 131
-168 159 -50 21 -54 25 -48 48 8 36 9 37 98 56 177 38 350 115 526 233 135 91
221 164 459 386 290 272 320 296 493 411 48 32 86 59 85 61 -2 1 -48 -9 -103
-23 -134 -33 -279 -41 -364 -18 -126 32 -204 86 -417 280 -248 228 -403 331
-596 398 -15 5 -16 21 -11 139 3 81 1 162 -6 208 -17 109 -65 244 -119 335
-55 92 -181 223 -265 275 -31 19 -57 38 -57 41 0 5 101 37 243 76 29 8 19 17
-60 57 -87 43 -200 112 -482 297 l-194 127 59 17 c149 43 274 139 413 319 88
112 118 143 206 207 l60 44 -95 6 c-124 9 -167 23 -400 134 -107 51 -220 102
-251 113 -75 28 -197 52 -259 52 l-52 0 62 67 c34 37 122 147 195 243 206 270
276 345 396 425 l54 36 -60 -8 c-92 -12 -238 -7 -401 16 -82 11 -200 26 -263
32 -143 15 -449 6 -545 -15 -38 -9 -72 -14 -74 -11 -2 2 5 19 17 38 33 53 68
156 91 264 17 79 23 158 30 408 6 200 15 329 23 363 8 28 12 52 11 52 -2 0
-59 -27 -126 -59 -68 -33 -175 -80 -238 -106 -294 -119 -478 -229 -616 -369
l-92 -92 -32 80 c-48 117 -154 327 -263 522 -53 95 -114 208 -136 253 -23 45
-43 81 -45 81 -3 0 -12 -24 -22 -52z"/>
<path d="M4469 4506 c-2 -2 -3 -52 -1 -110 l3 -105 72 49 c136 91 158 140 63
140 -18 0 -55 7 -82 15 -27 8 -49 15 -50 15 0 0 -3 -2 -5 -4z"/>
<path d="M4552 4303 c-65 -47 -125 -126 -147 -194 -20 -59 -17 -188 4 -227 13
-24 13 -24 32 15 45 88 107 133 185 133 51 0 68 10 43 26 -28 17 -53 101 -59
192 l-5 93 -53 -38z"/>
<path d="M4351 3840 c0 -47 6 -114 13 -150 l13 -65 7 50 c4 28 11 67 16 88 7
32 4 48 -20 100 l-29 62 0 -85z"/>
<path d="M4104 3412 c-111 -39 -174 -124 -174 -234 1 -98 59 -177 158 -215
l44 -16 -56 -17 c-113 -36 -197 -106 -231 -193 -24 -65 -18 -175 15 -242 72
-148 252 -227 417 -182 l52 14 -28 -41 c-50 -73 -63 -147 -41 -227 13 -47 72
-114 124 -141 86 -46 223 -21 311 57 l30 26 -45 -8 c-76 -13 -142 -8 -188 16
-83 43 -137 155 -130 276 l3 64 -59 10 c-160 28 -286 178 -286 339 0 79 33
146 100 205 l54 46 -26 21 c-93 73 -91 286 5 393 17 20 46 44 62 52 l30 15
-45 0 c-25 -1 -68 -9 -96 -18z"/>
<path d="M3640 3070 c-24 -24 -25 -34 -4 -54 29 -29 84 -11 84 27 0 47 -45 62
-80 27z"/>
<path d="M2741 3026 c-26 -32 25 -68 55 -39 8 9 13 22 10 30 -3 8 -6 17 -6 19
0 10 -49 2 -59 -10z"/>
<path d="M2579 3004 c-20 -24 1 -49 41 -49 40 0 61 25 41 49 -8 9 -26 16 -41
16 -15 0 -33 -7 -41 -16z"/>
<path d="M2400 2960 c-24 -24 -25 -34 -4 -54 18 -19 75 -21 92 -4 28 28 1 78
-44 78 -13 0 -33 -9 -44 -20z"/>
<path d="M3537 2932 c-34 -37 -15 -82 33 -82 67 0 80 92 14 98 -20 2 -36 -4
-47 -16z"/>
<path d="M2226 2884 c-32 -31 -14 -84 29 -84 50 0 84 57 53 88 -17 17 -64 15
-82 -4z"/>
<path d="M3205 2834 c-22 -23 -14 -38 22 -42 34 -3 51 21 32 44 -15 18 -34 18
-54 -2z"/>
<path d="M3448 2745 c-25 -55 39 -109 82 -70 22 20 26 65 8 83 -7 7 -27 12
-45 12 -26 0 -36 -6 -45 -25z"/>
<path d="M3110 2691 c-14 -26 -3 -50 26 -57 42 -11 72 34 42 64 -18 18 -56 14
-68 -7z"/>
<path d="M2702 2668 c-7 -7 -12 -21 -12 -33 0 -12 5 -26 12 -33 7 -7 21 -12
33 -12 12 0 26 5 33 12 7 7 12 21 12 33 0 12 -5 26 -12 33 -7 7 -21 12 -33 12
-12 0 -26 -5 -33 -12z"/>
<path d="M3420 2570 c-17 -32 -8 -73 19 -86 53 -27 100 30 67 80 -21 33 -70
36 -86 6z"/>
<path d="M2110 2550 c-12 -12 -20 -33 -20 -55 0 -71 81 -102 130 -50 27 29 32
83 11 109 -20 24 -96 21 -121 -4z"/>
<path d="M3020 2530 c-23 -43 17 -83 58 -61 24 13 34 38 27 62 -9 27 -70 26
-85 -1z"/>
<path d="M2546 2521 c-23 -25 -17 -52 14 -69 38 -21 80 -2 80 37 0 49 -61 69
-94 32z"/>
<path d="M3389 2382 c-25 -21 -31 -74 -11 -94 19 -19 82 -15 98 7 47 64 -25
136 -87 87z"/>
<path d="M2385 2374 c-31 -32 -11 -94 31 -94 44 0 64 17 64 55 0 18 -5 37 -11
41 -24 14 -68 13 -84 -2z"/>
<path d="M2930 2323 c-11 -15 -18 -33 -15 -41 3 -7 5 -17 5 -22 0 -4 13 -13
30 -20 25 -10 34 -10 55 4 28 18 35 72 13 94 -21 21 -65 14 -88 -15z"/>
<path d="M2202 2218 c-38 -38 8 -89 61 -69 48 19 31 81 -23 81 -14 0 -31 -5
-38 -12z"/>
<path d="M3362 2163 c-33 -28 -37 -64 -11 -97 19 -24 27 -27 56 -23 44 8 60
21 68 58 10 44 -16 79 -59 79 -19 0 -43 -8 -54 -17z"/>
<path d="M2817 2122 c-47 -52 16 -113 88 -86 27 11 38 53 20 80 -20 30 -83 34
-108 6z"/>
<path d="M2060 2111 c-22 -43 22 -75 65 -47 28 19 29 20 15 47 -14 26 -66 26
-80 0z"/>
<path d="M3669 2100 c-34 -34 -37 -67 -8 -104 28 -35 80 -36 114 -1 48 47 22
122 -44 130 -27 3 -39 -1 -62 -25z"/>
<path d="M1913 2039 c-13 -5 -23 -15 -23 -22 0 -40 73 -50 78 -10 4 27 -25 44
-55 32z"/>
<path d="M2681 1923 c-34 -43 -9 -94 48 -95 61 -2 93 60 51 102 -29 29 -74 26
-99 -7z"/>
<path d="M3311 1904 c-41 -34 -43 -83 -5 -113 85 -67 205 39 129 114 -33 34
-84 33 -124 -1z"/>
<path d="M2542 1753 c-21 -8 -43 -61 -36 -88 13 -54 102 -65 142 -19 26 29 24
64 -5 97 -15 16 -71 22 -101 10z"/>
<path d="M1695 1721 c-153 -70 -189 -277 -71 -396 50 -49 93 -65 181 -65 105
0 191 55 232 149 24 55 22 167 -4 216 -45 84 -104 115 -220 115 -54 0 -90 -6
-118 -19z"/>
<path d="M5035 1712 c-76 -24 -91 -25 -282 -23 -209 1 -240 -3 -280 -41 -32
-29 -29 -61 7 -92 58 -48 140 -47 292 4 107 36 279 118 323 154 17 14 28 25
25 24 -3 0 -41 -12 -85 -26z"/>
<path d="M3294 1680 c-52 -21 -70 -94 -34 -130 29 -29 100 -27 136 4 37 31 39
90 5 117 -24 20 -71 24 -107 9z"/>
<path d="M4287 1640 c-73 -13 -107 -81 -67 -132 54 -70 180 -31 180 55 0 61
-42 89 -113 77z"/>
<path d="M4005 1575 c-14 -13 -25 -33 -25 -45 0 -31 44 -70 78 -70 41 0 82 35
82 69 0 64 -88 94 -135 46z"/>
<path d="M3831 1541 c-35 -9 -47 -34 -33 -65 9 -21 19 -26 46 -26 38 0 59 19
54 51 -4 28 -37 48 -67 40z"/>
<path d="M2374 1512 c-51 -41 -59 -109 -18 -141 33 -26 70 -27 112 -1 53 33
65 98 25 143 -21 23 -91 22 -119 -1z"/>
<path d="M4685 1459 c-55 -26 -158 -67 -230 -90 -130 -42 -222 -83 -260 -116
-94 -83 -85 -173 17 -173 77 0 174 54 333 185 103 86 267 246 250 244 -6 0
-55 -23 -110 -50z"/>
<path d="M2715 1397 c-88 -88 -54 -218 61 -234 50 -6 106 16 130 51 40 63 34
144 -16 189 -25 23 -39 27 -86 27 -50 0 -60 -4 -89 -33z"/>
<path d="M2229 1241 c-38 -38 -40 -91 -5 -126 45 -45 102 -45 153 -1 39 34 39
98 0 132 -42 36 -109 34 -148 -5z"/>
<path d="M3965 1093 c-65 -16 -89 -103 -39 -142 39 -31 89 -28 125 8 32 33 36
58 14 100 -20 39 -45 47 -100 34z"/>
<path d="M3760 933 c-37 -7 -50 -22 -50 -59 0 -40 22 -64 59 -64 37 0 60 19
67 56 5 25 1 37 -15 53 -12 12 -24 20 -28 20 -5 -1 -19 -4 -33 -6z"/>
<path d="M3534 775 c-13 -20 -15 -31 -6 -50 20 -44 107 -35 119 13 9 37 -8 57
-55 60 -35 3 -43 -1 -58 -23z"/>
</g>
</svg>
